<svg width="48" height="48" viewBox="0 0 48 48" fill="none" xmlns="http://www.w3.org/2000/svg">
<rect width="48" height="48" rx="14.0625" fill="#050505"/>
<rect width="48" height="48" rx="14.0625" fill="url(#paint0_linear_14813_228016)" fill-opacity="0.32"/>
<g clip-path="url(#clip0_14813_228016)">
<path d="M23.6838 19.594C23.6838 20.7659 23.3752 21.8328 22.7536 22.8036C22.132 23.7743 21.3165 24.5177 20.2938 25.0337L23.6794 34.3126H19.8132L16.6657 25.7202H12.6399V34.3127H8.90601L8.90698 22.0908H17.5385C18.2395 22.0908 18.8302 21.8503 19.3239 21.3606C19.8177 20.8708 20.0601 20.2893 20.0601 19.6071C20.0601 18.925 19.8132 18.3347 19.3239 17.8362C18.8346 17.342 18.2395 17.0928 17.5385 17.0928H8.90698V13.4984H17.5385C19.2358 13.4984 20.6861 14.0931 21.8852 15.2825C23.0842 16.4719 23.6838 17.9105 23.6838 19.594Z" fill="white"/>
<path d="M38.4324 14.7508C38.6928 14.9016 38.9446 15.0608 39.1878 15.2287L37.3618 18.4292C36.1363 17.4679 34.7094 16.9873 33.0786 16.9873C31.1428 16.9873 29.4945 17.6645 28.1291 19.0189C26.7637 20.3732 26.081 22.0083 26.081 23.9284C26.081 25.8486 26.7637 27.4836 28.1291 28.838C29.4945 30.1924 31.1428 30.8696 33.0786 30.8696C34.7135 30.8696 36.1434 30.3865 37.371 29.4205L39.3325 32.5266C39.0449 32.7321 38.7448 32.9252 38.4324 33.106C36.7931 34.055 35.0055 34.5317 33.0741 34.5317C31.1428 34.5317 29.3507 34.0594 27.7158 33.106C26.0765 32.1571 24.7785 30.8696 23.8218 29.2434C22.8651 27.6173 22.3845 25.8441 22.3845 23.9284C22.3845 22.0127 22.8651 20.2396 23.8218 18.6135C24.7785 16.9873 26.0765 15.6998 27.7158 14.7508C29.3552 13.8019 31.1428 13.3252 33.0741 13.3252C35.0055 13.3252 36.7931 13.8019 38.4324 14.7508Z" fill="#EF4423"/>
<ellipse cx="40.2943" cy="24.0457" rx="2.6193" ry="2.61929" fill="#EF4423"/>
</g>
<defs>
<linearGradient id="paint0_linear_14813_228016" x1="24" y1="35.7913" x2="24" y2="4.26666e-06" gradientUnits="userSpaceOnUse">
<stop stop-opacity="0"/>
<stop offset="1" stop-color="#565B66"/>
</linearGradient>
<clipPath id="clip0_14813_228016">
<rect width="34.425" height="22.4511" fill="white" transform="translate(8.90625 12.75)"/>
</clipPath>
</defs>
</svg>
