<svg xmlns:xlink="http://www.w3.org/1999/xlink" xmlns="http://www.w3.org/2000/svg" width="197" height="40" viewBox="0 0 197 40" fill="none">
  <g clip-path="url(#clip0_12021_14876)">
    <path d="M36.7805 4.19465H20.1022V0.0997116H36.7805V4.19465ZM33.9742 14.0066H20.1022V9.87681H33.9742V14.0066ZM36.7805 23.7837H20.1022V19.6887H36.7805V23.7837Z" fill="white"/>
    <path d="M57.4489 0.0997116H61.8126L53.1848 23.7837H48.8212L40.1935 0.0997116H44.5571L50.9856 17.793L57.4489 0.0997116Z" fill="white"/>
    <path d="M67.7185 1.69191C69.5346 0.632103 71.5149 0.0997116 73.6544 0.0997116C75.794 0.0997116 77.7743 0.632103 79.5904 1.69191C81.4065 2.75172 82.8444 4.18967 83.9042 6.00577C84.964 7.82188 85.4964 9.80217 85.4964 11.9417C85.4964 14.0812 84.964 16.0665 83.9042 17.8776C82.8444 19.6937 81.4065 21.1317 79.5904 22.1915C77.7743 23.2513 75.794 23.7837 73.6544 23.7837C71.5149 23.7837 69.5296 23.2563 67.7185 22.1915C65.9024 21.1317 64.4645 19.6937 63.4046 17.8776C62.3448 16.0615 61.8124 14.0812 61.8124 11.9417C61.8124 9.80217 62.3399 7.82188 63.4046 6.00577C64.4645 4.18967 65.9024 2.75172 67.7185 1.69191ZM68.1763 17.4248C69.6889 18.9374 71.5149 19.6937 73.6594 19.6937C75.8039 19.6937 77.63 18.9374 79.1426 17.4248C80.6551 15.9122 81.4114 14.0862 81.4114 11.9417C81.4114 9.7972 80.6551 7.97114 79.1426 6.45855C77.63 4.94597 75.8039 4.18967 73.6594 4.18967C71.5149 4.18967 69.6889 4.94597 68.1763 6.45855C66.6637 7.97114 65.9074 9.7972 65.9074 11.9417C65.9074 14.0862 66.6637 15.9122 68.1763 17.4248Z" fill="white"/>
    <path d="M92.9754 19.6887H105.564V23.7837H88.8854V0.0997116H92.9804V19.6887H92.9754Z" fill="white"/>
    <path d="M121.565 0.0997116H125.66V15.4246C125.66 17.7482 124.849 19.7236 123.222 21.3456C121.6 22.9677 119.634 23.7837 117.336 23.7837C115.037 23.7837 113.067 22.9726 111.43 21.3456C109.793 19.7236 108.977 17.7482 108.977 15.4246V0.0997116H113.072V15.4246C113.072 16.5989 113.49 17.6039 114.325 18.4349C115.161 19.2708 116.161 19.6887 117.336 19.6887C118.51 19.6887 119.505 19.2708 120.331 18.4349C121.152 17.599 121.565 16.5989 121.565 15.4246V0.0997116Z" fill="white"/>
    <path d="M139.467 4.09494V23.684H135.372V4.09494H129.078V0H139.482" fill="white"/>
    <path d="M148.523 23.8433H144.428V0.15932H148.523V23.8433Z" fill="white"/>
    <path d="M157.847 1.75166C159.663 0.691848 161.644 0.159457 163.783 0.159457C165.923 0.159457 167.903 0.691848 169.719 1.75166C171.535 2.81146 172.973 4.24942 174.033 6.06552C175.093 7.88162 175.625 9.86192 175.625 12.0014C175.625 14.141 175.093 16.1262 174.033 17.9373C172.973 19.7535 171.535 21.1914 169.719 22.2512C167.903 23.311 165.923 23.8434 163.783 23.8434C161.644 23.8434 159.659 23.316 157.847 22.2512C156.031 21.1914 154.593 19.7535 153.534 17.9373C152.474 16.1212 151.941 14.141 151.941 12.0014C151.941 9.86192 152.474 7.88162 153.534 6.06552C154.593 4.24942 156.031 2.81146 157.847 1.75166ZM158.305 17.4846C159.818 18.9972 161.644 19.7535 163.788 19.7535C165.933 19.7535 167.759 18.9972 169.271 17.4846C170.784 15.972 171.54 14.1459 171.54 12.0014C171.54 9.85694 170.784 8.03089 169.271 6.5183C167.759 5.00571 165.933 4.24942 163.788 4.24942C161.644 4.24942 159.818 5.00571 158.305 6.5183C156.793 8.03089 156.036 9.85694 156.036 12.0014C156.036 14.1459 156.793 15.972 158.305 17.4846Z" fill="white"/>
    <path d="M192.339 0.15932H196.434V23.8433H192.339L183.104 8.2447V23.8433H179.009V0.15932H183.104L192.339 15.7927V0.15932Z" fill="white"/>
    <path d="M76.7495 12.1506C78.6044 12.1506 80.1081 10.6469 80.1081 8.79207C80.1081 6.9372 78.6044 5.43353 76.7495 5.43353C74.8947 5.43353 73.391 6.9372 73.391 8.79207C73.391 10.6469 74.8947 12.1506 76.7495 12.1506Z" fill="#EF4423"/>
    <path d="M130.845 38.8049C130.293 38.5163 129.865 38.1183 129.561 37.6008C129.263 37.0833 129.108 36.4863 129.108 35.8096V32.5555C129.108 31.8788 129.258 31.2818 129.561 30.7643C129.86 30.2468 130.288 29.8488 130.845 29.5652C131.397 29.2816 132.044 29.1422 132.775 29.1422C133.507 29.1422 134.134 29.2766 134.686 29.5453C135.238 29.8139 135.661 30.1921 135.97 30.6847C136.278 31.1773 136.427 31.7495 136.427 32.3963C136.427 32.4809 136.373 32.5306 136.258 32.5505L134.611 32.6501H134.582C134.487 32.6501 134.442 32.6003 134.442 32.4958C134.442 31.9982 134.288 31.6002 133.984 31.2967C133.681 30.9932 133.278 30.8439 132.78 30.8439C132.283 30.8439 131.865 30.9932 131.561 31.2967C131.258 31.6002 131.104 31.9982 131.104 32.4958V35.8942C131.104 36.3818 131.258 36.7798 131.561 37.0784C131.865 37.3769 132.273 37.5311 132.78 37.5311C133.288 37.5311 133.681 37.3819 133.984 37.0784C134.288 36.7798 134.442 36.3818 134.442 35.8942C134.442 35.7897 134.497 35.7399 134.611 35.7399L136.258 35.8096C136.303 35.8096 136.343 35.8245 136.378 35.8494C136.413 35.8743 136.427 35.9091 136.427 35.9489C136.427 36.5957 136.273 37.1729 135.97 37.6705C135.666 38.168 135.238 38.5511 134.686 38.8248C134.134 39.0985 133.502 39.2328 132.775 39.2328C132.049 39.2328 131.397 39.0885 130.845 38.8049Z" fill="#EF4423"/>
    <path d="M148.035 38.9842L147.612 37.601C147.592 37.5612 147.572 37.5463 147.543 37.5463H144.075C144.045 37.5463 144.025 37.5662 144.005 37.601L143.597 38.9842C143.567 39.0788 143.507 39.1235 143.413 39.1235H141.622C141.567 39.1235 141.522 39.1086 141.497 39.0738C141.467 39.039 141.462 38.9892 141.482 38.9245L144.527 29.4012C144.557 29.3066 144.617 29.2619 144.712 29.2619H146.926C147.02 29.2619 147.08 29.3066 147.11 29.4012L150.155 38.9245C150.155 38.9245 150.17 38.9643 150.17 38.9942C150.17 39.0788 150.12 39.1186 150.016 39.1186H148.224C148.13 39.1186 148.07 39.0738 148.04 38.9792L148.035 38.9842ZM144.567 36.0088H147.045C147.1 36.0088 147.12 35.979 147.1 35.9242L145.831 31.7397C145.821 31.6999 145.806 31.685 145.791 31.69C145.771 31.69 145.756 31.7099 145.751 31.7397L144.512 35.9242C144.503 35.979 144.522 36.0088 144.567 36.0088Z" fill="#EF4423"/>
    <path d="M156.494 38.8746C155.932 38.6358 155.494 38.2925 155.19 37.8447C154.887 37.3969 154.733 36.8794 154.733 36.2873V35.9788C154.733 35.934 154.748 35.8942 154.782 35.8594C154.817 35.8246 154.857 35.8096 154.902 35.8096H156.509C156.554 35.8096 156.594 35.8246 156.628 35.8594C156.663 35.8942 156.678 35.934 156.678 35.9788V36.1878C156.678 36.5659 156.852 36.8794 157.201 37.1381C157.549 37.3969 158.017 37.5262 158.609 37.5262C159.106 37.5262 159.479 37.4217 159.723 37.2078C159.967 36.9988 160.091 36.7351 160.091 36.4266C160.091 36.2027 160.017 36.0136 159.868 35.8544C159.718 35.7002 159.514 35.5658 159.256 35.4464C158.997 35.327 158.589 35.1678 158.022 34.9588C157.39 34.7449 156.857 34.521 156.424 34.2971C155.992 34.0731 155.623 33.7647 155.325 33.3766C155.026 32.9885 154.882 32.5058 154.882 31.9336C154.882 31.3614 155.026 30.8788 155.32 30.4559C155.613 30.0329 156.016 29.7095 156.534 29.4856C157.051 29.2617 157.648 29.1473 158.325 29.1473C159.037 29.1473 159.673 29.2717 160.236 29.5254C160.798 29.7792 161.231 30.1325 161.544 30.5902C161.858 31.048 162.017 31.5754 162.017 32.1774V32.3864C162.017 32.4312 162.002 32.471 161.967 32.5058C161.932 32.5407 161.893 32.5556 161.848 32.5556H160.226C160.181 32.5556 160.141 32.5407 160.106 32.5058C160.072 32.471 160.057 32.4312 160.057 32.3864V32.272C160.057 31.8789 159.892 31.5406 159.569 31.2619C159.246 30.9833 158.803 30.8489 158.236 30.8489C157.793 30.8489 157.449 30.9435 157.201 31.1326C156.952 31.3216 156.827 31.5804 156.827 31.9088C156.827 32.1426 156.902 32.3416 157.046 32.5009C157.191 32.6601 157.41 32.8044 157.693 32.9288C157.977 33.0531 158.425 33.2273 159.027 33.4412C159.693 33.685 160.216 33.904 160.599 34.0881C160.977 34.2771 161.32 34.5558 161.629 34.929C161.937 35.3021 162.087 35.7798 162.087 36.3719C162.087 37.2575 161.763 37.9541 161.116 38.4666C160.47 38.9791 159.589 39.2329 158.479 39.2329C157.728 39.2329 157.071 39.1134 156.509 38.8746H156.494Z" fill="#EF4423"/>
    <path d="M167.814 39.0738C167.779 39.039 167.764 38.9992 167.764 38.9544V29.431C167.764 29.3863 167.779 29.3464 167.814 29.3116C167.849 29.2768 167.889 29.2619 167.933 29.2619H169.58C169.625 29.2619 169.665 29.2768 169.7 29.3116C169.735 29.3464 169.75 29.3863 169.75 29.431V38.9544C169.75 38.9992 169.735 39.039 169.7 39.0738C169.665 39.1086 169.625 39.1235 169.58 39.1235H167.933C167.889 39.1235 167.849 39.1086 167.814 39.0738Z" fill="#EF4423"/>
    <path d="M181.482 29.3064C181.516 29.2716 181.556 29.2567 181.601 29.2567H183.248C183.293 29.2567 183.332 29.2716 183.367 29.3064C183.402 29.3413 183.417 29.3811 183.417 29.4258V38.9492C183.417 38.994 183.402 39.0338 183.367 39.0686C183.332 39.1034 183.293 39.1184 183.248 39.1184H181.656C181.561 39.1184 181.496 39.0786 181.457 39.0039L177.81 32.9735C177.79 32.9436 177.77 32.9337 177.755 32.9386C177.735 32.9386 177.725 32.9635 177.725 33.0033L177.755 38.9492C177.755 38.994 177.74 39.0338 177.705 39.0686C177.67 39.1034 177.63 39.1184 177.586 39.1184H175.939C175.894 39.1184 175.854 39.1034 175.819 39.0686C175.784 39.0338 175.77 38.994 175.77 38.9492V29.4258C175.77 29.3811 175.784 29.3413 175.819 29.3064C175.854 29.2716 175.894 29.2567 175.939 29.2567H177.531C177.625 29.2567 177.69 29.2965 177.73 29.3711L181.367 35.3717C181.387 35.4016 181.407 35.4115 181.422 35.4065C181.442 35.4065 181.452 35.3817 181.452 35.3419L181.437 29.4258C181.437 29.3811 181.452 29.3413 181.487 29.3064H181.482Z" fill="#EF4423"/>
    <path d="M191.009 38.8249C190.452 38.5263 190.014 38.1034 189.706 37.566C189.397 37.0237 189.243 36.4017 189.243 35.7002V32.6849C189.243 31.9884 189.397 31.3764 189.706 30.839C190.014 30.3016 190.452 29.8887 191.009 29.5901C191.567 29.2916 192.213 29.1473 192.945 29.1473C193.676 29.1473 194.338 29.2966 194.895 29.5901C195.453 29.8837 195.89 30.3016 196.199 30.839C196.507 31.3764 196.662 31.9884 196.662 32.6849V35.7002C196.662 36.4067 196.507 37.0287 196.199 37.576C195.89 38.1233 195.453 38.5413 194.895 38.8398C194.338 39.1334 193.686 39.2826 192.945 39.2826C192.203 39.2826 191.567 39.1334 191.009 38.8298V38.8249ZM194.204 37.0784C194.522 36.75 194.681 36.3122 194.681 35.7698V32.67C194.681 32.1277 194.522 31.6848 194.209 31.3515C193.895 31.0181 193.472 30.8539 192.95 30.8539C192.427 30.8539 192.019 31.0181 191.701 31.3515C191.387 31.6848 191.228 32.1227 191.228 32.67V35.7698C191.228 36.3172 191.387 36.75 191.701 37.0784C192.014 37.4068 192.432 37.571 192.95 37.571C193.467 37.571 193.885 37.4068 194.204 37.0784Z" fill="#EF4423"/>
    <path d="M16.6794 7.03573C16.6794 8.36919 16.3311 9.58325 15.6295 10.6878C14.928 11.7924 14.0075 12.6383 12.8531 13.2254L16.6744 23.7837H12.3108L8.7582 14.0066H4.21436V23.7837H0L0.00109981 9.87681H9.74338C10.5345 9.87681 11.2012 9.60315 11.7585 9.04588C12.3158 8.48861 12.5894 7.82685 12.5894 7.05065C12.5894 6.27446 12.3108 5.60275 11.7585 5.03553C11.2062 4.47328 10.5345 4.18967 9.74338 4.18967H0.00109981V0.0997116H9.74338C11.659 0.0997116 13.296 0.776396 14.6493 2.12977C16.0027 3.48313 16.6794 5.12011 16.6794 7.03573Z" fill="white"/>
  </g>
  <defs>
    <clipPath id="clip0_12021_14876">
      <rect width="196.667" height="40" fill="white"/>
    </clipPath>
  </defs>
</svg>